<mxfile host="app.diagrams.net" modified="2023-10-16T01:43:39.608Z" agent="Mozilla/5.0 (Windows NT 10.0; Win64; x64) AppleWebKit/537.36 (KHTML, like Gecko) Chrome/95.0.4638.69 Safari/537.36" version="21.8.2" etag="ItVaecTopYZqabCvLrr2" type="github">
  <diagram name="第 1 页" id="PtXdj7awjU3jwET-y1Wv">
    <mxGraphModel>
      <root>
        <mxCell id="0" />
        <mxCell id="1" parent="0" />
      </root>
    </mxGraphModel>
  </diagram>
</mxfile>
